<svg width="512" height="512" viewBox="0 0 512 512" fill="none" xmlns="http://www.w3.org/2000/svg">
<path d="M256 512C397.385 512 512 397.385 512 256C512 114.615 397.385 0 256 0C114.615 0 0 114.615 0 256C0 397.385 114.615 512 256 512Z" fill="#0032A0"/>
<path d="M255.976 10.6619C120.552 10.6619 10.6781 120.583 10.6781 256.007C10.6781 391.432 120.552 501.353 255.976 501.353C391.401 501.353 501.322 391.432 501.322 256.007C501.322 120.583 391.401 10.6619 255.976 10.6619Z" fill="white"/>
<path d="M255.976 19.8064C125.489 19.8064 19.8033 125.537 19.8033 256.027C19.8033 386.516 125.489 492.247 255.976 492.247C386.464 492.247 492.197 386.514 492.197 256.027C492.197 125.539 386.464 19.8064 255.976 19.8064Z" fill="#EF3340"/>
<path d="M146.75 356.375V374.5C146.75 379.635 145.013 383.94 141.539 387.414C138.065 390.888 133.76 392.625 128.625 392.625H110.5C105.365 392.625 101.06 390.888 97.5859 387.414C94.112 383.94 92.375 379.635 92.375 374.5V229.5L130.438 120.75C132.25 115.312 135.497 110.932 140.18 107.609C144.862 104.286 150.073 102.625 155.812 102.625H355.188C360.927 102.625 366.138 104.286 370.82 107.609C375.503 110.932 378.75 115.312 380.562 120.75L418.625 229.5V374.5C418.625 379.635 416.888 383.94 413.414 387.414C409.94 390.888 405.635 392.625 400.5 392.625H382.375C377.24 392.625 372.935 390.888 369.461 387.414C365.987 383.94 364.25 379.635 364.25 374.5V356.375H146.75ZM143.125 193.25H367.875L348.844 138.875H162.156L143.125 193.25ZM173.938 302C181.49 302 187.909 299.357 193.195 294.07C198.482 288.784 201.125 282.365 201.125 274.812C201.125 267.26 198.482 260.841 193.195 255.555C187.909 250.268 181.49 247.625 173.938 247.625C166.385 247.625 159.966 250.268 154.68 255.555C149.393 260.841 146.75 267.26 146.75 274.812C146.75 282.365 149.393 288.784 154.68 294.07C159.966 299.357 166.385 302 173.938 302ZM337.062 302C344.615 302 351.034 299.357 356.32 294.07C361.607 288.784 364.25 282.365 364.25 274.812C364.25 267.26 361.607 260.841 356.32 255.555C351.034 250.268 344.615 247.625 337.062 247.625C329.51 247.625 323.091 250.268 317.805 255.555C312.518 260.841 309.875 267.26 309.875 274.812C309.875 282.365 312.518 288.784 317.805 294.07C323.091 299.357 329.51 302 337.062 302ZM128.625 320.125H382.375V229.5H128.625V320.125Z" fill="#F8E600"/>
</svg>
