<svg width="308" height="308" viewBox="0 0 308 308" fill="none" xmlns="http://www.w3.org/2000/svg">
<path d="M153.61 307.188C238.446 307.188 307.219 238.422 307.219 153.594C307.219 68.7664 238.446 0 153.61 0C68.7734 0 0 68.7664 0 153.594C0 238.422 68.7734 307.188 153.61 307.188Z" fill="#0032A0"/>
<path d="M153.596 6.39694C72.3358 6.39694 6.40727 72.347 6.40727 153.599C6.40727 234.85 72.3358 300.8 153.596 300.8C234.855 300.8 300.812 234.85 300.812 153.599C300.812 72.347 234.855 6.39694 153.596 6.39694Z" fill="white"/>
<path d="M153.596 11.8833C75.298 11.8833 11.8827 75.3192 11.8827 153.61C11.8827 231.901 75.298 295.337 153.596 295.337C231.893 295.337 295.337 231.9 295.337 153.61C295.337 75.3205 231.893 11.8833 153.596 11.8833Z" fill="#EF3340"/>
<path d="M92.573 210.483V220.661C92.573 223.544 91.5964 225.961 89.6431 227.912C87.6898 229.863 85.2695 230.838 82.382 230.838H72.191C69.3036 230.838 66.8832 229.863 64.9299 227.912C62.9766 225.961 62 223.544 62 220.661V139.242L83.4011 78.1774C84.4202 75.1242 86.2461 72.6646 88.8788 70.7988C91.5115 68.9329 94.4414 68 97.6685 68H209.77C212.997 68 215.927 68.9329 218.559 70.7988C221.192 72.6646 223.018 75.1242 224.037 78.1774L245.438 139.242V220.661C245.438 223.544 244.461 225.961 242.508 227.912C240.555 229.863 238.135 230.838 235.247 230.838H225.056C222.169 230.838 219.748 229.863 217.795 227.912C215.842 225.961 214.865 223.544 214.865 220.661V210.483H92.573ZM90.5348 118.887H216.903L206.203 88.3548H101.235L90.5348 118.887ZM107.86 179.951C112.106 179.951 115.715 178.467 118.687 175.499C121.66 172.53 123.146 168.926 123.146 164.685C123.146 160.445 121.66 156.84 118.687 153.872C115.715 150.903 112.106 149.419 107.86 149.419C103.613 149.419 100.004 150.903 97.0316 153.872C94.0592 156.84 92.573 160.445 92.573 164.685C92.573 168.926 94.0592 172.53 97.0316 175.499C100.004 178.467 103.613 179.951 107.86 179.951ZM199.579 179.951C203.825 179.951 207.434 178.467 210.407 175.499C213.379 172.53 214.865 168.926 214.865 164.685C214.865 160.445 213.379 156.84 210.407 153.872C207.434 150.903 203.825 149.419 199.579 149.419C195.332 149.419 191.723 150.903 188.751 153.872C185.778 156.84 184.292 160.445 184.292 164.685C184.292 168.926 185.778 172.53 188.751 175.499C191.723 178.467 195.332 179.951 199.579 179.951ZM82.382 190.129H225.056V139.242H82.382V190.129Z" fill="#F8E600"/>
</svg>
